<svg width="75" height="75" viewBox="0 0 75 75" fill="none" xmlns="http://www.w3.org/2000/svg">
<path d="M27.5625 39.4964C27.1621 36.7919 27.6586 31.3828 32.848 31.3828C38.0374 31.3828 40.7763 31.3828 41.497 31.3828C44.7526 31.3828 47.0228 32.5999 47.0228 39.4964" stroke="#048ABF" stroke-width="1.90909" stroke-linecap="round"/>
<circle cx="37.1071" cy="22.3146" r="5.72727" stroke="#048ABF" stroke-width="1.90909"/>
<path d="M16.0786 39.7021C15.7868 37.7311 16.1487 33.7891 19.9306 33.7891C23.7126 33.7891 18.8912 33.7891 21.7273 33.7891" stroke="#048ABF" stroke-width="1.43182" stroke-linecap="round"/>
<circle cx="23.1592" cy="27.5611" r="3.57955" stroke="#048ABF" stroke-width="1.43182"/>
<path d="M57.9214 39.7021C58.2132 37.7311 57.8513 33.7891 54.0694 33.7891C50.2874 33.7891 55.1088 33.7891 52.2727 33.7891" stroke="#048ABF" stroke-width="1.43182" stroke-linecap="round"/>
<circle cx="4.29545" cy="4.29545" r="3.57955" transform="matrix(-1 0 0 1 55.1362 23.2656)" stroke="#048ABF" stroke-width="1.43182"/>
<path d="M53.5 57.5V73.5L33 57.5H14C4.8 57.5 2.16667 49.5 2 45.5V14.5C2 5.3 10 2.33333 14 2H57.5C69.1 2 72.6667 10.3333 73 14.5V43C73 57 60 58.5 53.5 57.5Z" stroke="#048ABF" stroke-width="3" stroke-linejoin="round"/>
</svg>
