<svg width="75" height="75" viewBox="0 0 75 75" fill="none" xmlns="http://www.w3.org/2000/svg">
<path d="M39.4335 16.7465V24.0828C39.4335 25.55 40.6562 25.9168 41.2675 25.9169H47.1366C48.8973 25.9169 49.0929 27.1396 48.9706 27.7509L37.9662 43.1572C36.4989 44.331 35.8876 42.9126 35.7653 42.0567V34.3536C35.7653 33.1798 34.2981 32.8863 33.5644 32.8863H29.5295C25.7146 33.1798 25.7391 31.5414 26.2282 30.6855L36.8658 16.0128C38.6265 14.2521 39.3112 15.7683 39.4335 16.7465Z" stroke="#048ABF" stroke-width="1.5"/>
<path d="M53.5 57.5V73.5L33 57.5H14C4.8 57.5 2.16667 49.5 2 45.5V14.5C2 5.3 10 2.33333 14 2H57.5C69.1 2 72.6667 10.3333 73 14.5V43C73 57 60 58.5 53.5 57.5Z" stroke="#048ABF" stroke-width="3" stroke-linejoin="round"/>
</svg>
