<svg width="75" height="75" viewBox="0 0 75 75" fill="none" xmlns="http://www.w3.org/2000/svg">
<path d="M53.5 57.5V73.5L33 57.5H14C4.8 57.5 2.16667 49.5 2 45.5V14.5C2 5.3 10 2.33333 14 2H57.5C69.1 2 72.6667 10.3333 73 14.5V43C73 57 60 58.5 53.5 57.5Z" stroke="#048ABF" stroke-width="3" stroke-linejoin="round"/>
<path d="M38.7133 15.1223L41.4402 23.5149C41.7414 24.442 42.6053 25.0697 43.5801 25.0697H52.4046C53.1311 25.0697 53.4332 25.9994 52.8454 26.4264L45.7063 31.6133C44.9177 32.1863 44.5877 33.2019 44.8889 34.1289L47.6158 42.5215C47.8403 43.2125 47.0495 43.7871 46.4617 43.3601L39.3225 38.1731C38.5339 37.6002 37.4661 37.6002 36.6775 38.1731L29.5383 43.3601C28.9505 43.7871 28.1597 43.2125 28.3842 42.5215L31.1111 34.1289C31.4123 33.2019 31.0823 32.1863 30.2937 31.6133L23.1546 26.4264C22.5668 25.9994 22.8689 25.0697 23.5954 25.0697H32.4199C33.3947 25.0697 34.2586 24.442 34.5598 23.5149L37.2867 15.1223C37.5112 14.4314 38.4888 14.4314 38.7133 15.1223Z" stroke="#048ABF" stroke-width="1.5"/>
</svg>
